<svg width="96" height="96" viewBox="0 0 96 96" fill="none" xmlns="http://www.w3.org/2000/svg" shape-rendering="crispEdges">
  <ellipse cx="40" cy="78" rx="28" ry="8" fill="#64748B" fill-opacity=".16"/>
  <g fill="#C9D2DC">
    <rect x="10" y="38" width="8" height="8"/>
    <rect x="14" y="46" width="8" height="8"/>
    <rect x="20" y="50" width="36" height="18"/>
    <rect x="28" y="44" width="24" height="10"/>
    <rect x="54" y="36" width="18" height="18"/>
    <rect x="56" y="28" width="6" height="8"/>
    <rect x="66" y="28" width="6" height="8"/>
    <rect x="24" y="66" width="8" height="10"/>
    <rect x="42" y="64" width="8" height="12"/>
  </g>
  <g fill="#F8FAFC">
    <rect x="14" y="40" width="4" height="4"/>
    <rect x="16" y="48" width="4" height="4"/>
    <rect x="22" y="52" width="30" height="12"/>
    <rect x="30" y="46" width="18" height="8"/>
    <rect x="56" y="38" width="14" height="14"/>
    <rect x="26" y="66" width="4" height="8"/>
    <rect x="44" y="64" width="4" height="10"/>
  </g>
  <g fill="#E2E8F0">
    <rect x="24" y="52" width="24" height="6"/>
    <rect x="30" y="46" width="14" height="4"/>
    <rect x="58" y="40" width="10" height="4"/>
  </g>
  <g fill="#94A3B8">
    <rect x="58" y="30" width="2" height="4"/>
    <rect x="68" y="30" width="2" height="4"/>
    <rect x="30" y="52" width="12" height="4"/>
    <rect x="20" y="54" width="4" height="4"/>
  </g>
  <g fill="#111827">
    <rect x="58" y="44" width="4" height="4"/>
    <rect x="64" y="44" width="4" height="4"/>
  </g>
  <g fill="#F9A8D4">
    <rect x="58" y="30" width="2" height="2"/>
    <rect x="68" y="30" width="2" height="2"/>
    <rect x="60" y="50" width="4" height="2"/>
  </g>
  <g fill="#FFFFFF">
    <rect x="58" y="48" width="6" height="2"/>
    <rect x="60" y="54" width="2" height="2"/>
    <rect x="24" y="70" width="4" height="2"/>
    <rect x="42" y="70" width="4" height="2"/>
  </g>
</svg>
